<svg width="176" height="67" viewBox="0 0 176 67" fill="none" xmlns="http://www.w3.org/2000/svg">
<path d="M36.1684 18.4381V5.15071C36.1684 2.31018 33.8555 0 31.0157 0H5.15271C2.31218 0 0 2.31018 0 5.15071V61.4723C0 64.3128 2.31285 66.623 5.15271 66.623H31.0157C33.8562 66.623 36.1684 64.3128 36.1684 61.4723V48.1849H32.6734V61.4723C32.6734 62.3862 31.9296 63.13 31.0157 63.13H5.15271C4.23878 63.13 3.49496 62.3862 3.49496 61.4723V5.15071C3.49496 4.23678 4.23878 3.49296 5.15271 3.49296H31.0157C31.9296 3.49296 32.6734 4.23678 32.6734 5.15071V18.4381H36.1684Z" fill="#1D1D1F"/>
<path d="M22.1038 6.47493C22.1038 6.96659 21.7083 7.36285 21.2186 7.36285H14.641C14.1513 7.36285 13.7557 6.96726 13.7557 6.47493C13.7557 5.98528 14.1513 5.58969 14.641 5.58969H21.2186C21.7076 5.58969 22.1038 5.98528 22.1038 6.47493Z" fill="#1D1D1F"/>
<path d="M11.1973 34.7068V31.2045H19.5975C19.1599 28.8516 16.5602 26.9637 13.8244 26.9637H10.6777V23.4614H13.8244C19.4061 23.4614 23.921 27.8123 23.921 33.1751C23.921 38.6747 19.4067 43.135 13.8244 43.135H10.6777V39.6327H13.8244C16.7797 39.6327 19.4881 37.4166 19.8437 34.7075H11.1973V34.7068Z" fill="#1D1D1F"/>
<path d="M36.3158 23.4607L44.2237 43.1336H40.1743L34.5106 28.8236L28.8469 43.1336H24.7976L32.7048 23.4607H36.3158Z" fill="#1D1D1F"/>
<path d="M56.5911 23.4607V26.963H49.6412V31.2038H56.5911V34.7061H49.6412V39.6313H56.5911V43.1336H45.8107V23.4607H56.5911Z" fill="#1D1D1F"/>
<path d="M63.1033 23.4607V31.5601L69.178 23.4607H73.6382L66.196 33.0097L73.6109 43.1336H68.9318L63.104 34.6788V43.1336H59.2735V23.4607H63.1033Z" fill="#1D1D1F"/>
<path d="M74.0479 23.4607H85.1018V26.963H81.4627V43.1336H77.6322V26.963H74.0479V23.4607Z" fill="#1D1D1F"/>
<path d="M87.0724 23.4607H93.065C96.6493 23.4607 99.5773 26.2519 99.5773 29.6988C99.5773 33.1464 96.6773 35.9649 93.0923 35.9649H90.8762V43.1336H87.0731V23.4607H87.0724ZM90.8755 32.4627H92.5993C94.2684 32.4627 95.6367 31.2312 95.6367 29.6988C95.6367 28.1665 94.2958 26.963 92.5993 26.963H90.8755V32.4627Z" fill="#1D1D1F"/>
<path d="M122.232 33.4206C122.232 39.0022 117.553 43.5446 111.78 43.5446C106.007 43.5446 101.328 39.0022 101.328 33.4206C101.328 27.7022 106.007 23.0778 111.78 23.0778C117.553 23.0778 122.232 27.7022 122.232 33.4206ZM105.268 33.4206C105.268 37.0596 108.168 40.0423 111.78 40.0423C115.392 40.0423 118.292 37.0596 118.292 33.4206C118.292 29.6174 115.392 26.5801 111.78 26.5801C108.168 26.5801 105.268 29.6174 105.268 33.4206Z" fill="#1D1D1F"/>
<path d="M128.443 23.4607V31.1771H135.503V23.4607H139.333V43.1336H135.503V34.6788H128.443V43.1336H124.613V23.4607H128.443Z" fill="#1D1D1F"/>
<path d="M142.371 23.4607H146.202V36.8956L154.356 23.4607H158.625V43.1336H154.794V29.9177L146.64 43.1336H142.371V23.4607Z" fill="#1D1D1F"/>
<path d="M165.465 23.4607V31.5601L171.54 23.4607H176L168.558 33.0097L175.973 43.1336H171.294L165.466 34.6788V43.1336H161.635V23.4607H165.465Z" fill="#1D1D1F"/>
<path d="M54.6218 52.2716C54.6218 54.6185 52.6545 56.529 50.2262 56.529C47.7986 56.529 45.8314 54.6191 45.8314 52.2716C45.8314 49.8667 47.7986 47.9221 50.2262 47.9221C52.6538 47.9221 54.6218 49.8667 54.6218 52.2716ZM47.4878 52.2716C47.4878 53.8019 48.7072 55.0561 50.2262 55.0561C51.7452 55.0561 52.9647 53.8019 52.9647 52.2716C52.9647 50.6725 51.7452 49.395 50.2262 49.395C48.7079 49.395 47.4878 50.6719 47.4878 52.2716Z" fill="#1D1D1F"/>
<path d="M57.9706 56.3556H56.3596V48.0828H62.5496V56.3556H60.9386V49.5558H57.9699V56.3556H57.9706Z" fill="#1D1D1F"/>
<path d="M63.8852 48.0835H68.5336V49.5565H67.0032V56.3563H65.3922V49.5565H63.8845V48.0835H63.8852Z" fill="#1D1D1F"/>
<path d="M78.2446 52.2716C78.2446 54.6185 76.2773 56.5291 73.8491 56.5291C71.4215 56.5291 69.4542 54.6191 69.4542 52.2716C69.4542 49.8667 71.4215 47.9221 73.8491 47.9221C76.2773 47.9221 78.2446 49.8667 78.2446 52.2716ZM71.1113 52.2716C71.1113 53.8019 72.3307 55.0561 73.8497 55.0561C75.3687 55.0561 76.5882 53.8019 76.5882 52.2716C76.5882 50.6725 75.3687 49.395 73.8497 49.395C72.3307 49.395 71.1113 50.6719 71.1113 52.2716Z" fill="#1D1D1F"/>
<path d="M79.9711 48.0835H82.5021C83.8596 48.0835 84.9523 49.0268 84.9523 50.1776C84.9523 50.9714 84.504 51.6732 83.951 51.8687C84.6528 52.1562 85.424 52.6512 85.424 53.836C85.424 55.2282 84.0437 56.3556 82.3406 56.3556H79.9704V48.0835H79.9711ZM81.5821 51.3276H82.3646C82.9057 51.3276 83.3426 50.9134 83.3426 50.3957C83.3426 49.9354 82.8943 49.5558 82.3413 49.5558H81.5821V51.3276ZM81.5821 54.8833H82.5027C83.2045 54.8833 83.7682 54.4117 83.7682 53.8366C83.7682 53.2616 83.2045 52.8013 82.5027 52.8013H81.5821V54.8833Z" fill="#1D1D1F"/>
<path d="M92.9502 56.3556L92.1217 54.2729H89.027L88.2104 56.3556H86.496L89.9709 48.0828H91.1904L94.6653 56.3556H92.9502ZM90.58 50.2576L89.5907 52.8119H91.57L90.58 50.2576Z" fill="#1D1D1F"/>
<path d="M99.9234 56.3556V53.2836L97.7487 56.3556H95.7467L98.1056 53.2836C96.4945 52.9961 95.7467 51.9374 95.7467 50.7179C95.7467 49.2569 97.0469 48.0828 98.6459 48.0828H101.534V56.3556H99.9234ZM99.9234 49.5558H98.8187C98.0249 49.5558 97.4038 50.1195 97.4038 50.8213C97.4038 51.5004 98.0135 52.0408 98.8187 52.0408H99.9234V49.5558Z" fill="#1D1D1F"/>
<path d="M109.681 48.0835V51.4891L112.236 48.0835H114.111L110.981 52.0988L114.099 56.3556H112.132L109.681 52.8006V56.3556H108.07V48.0828H109.681V48.0835Z" fill="#1D1D1F"/>
<path d="M123.477 52.2716C123.477 54.6185 121.51 56.5291 119.081 56.5291C116.654 56.5291 114.686 54.6191 114.686 52.2716C114.686 49.8667 116.654 47.9221 119.081 47.9221C121.51 47.9221 123.477 49.8667 123.477 52.2716ZM116.344 52.2716C116.344 53.8019 117.563 55.0561 119.082 55.0561C120.601 55.0561 121.82 53.8019 121.82 52.2716C121.82 50.6725 120.601 49.395 119.082 49.395C117.563 49.395 116.344 50.6719 116.344 52.2716Z" fill="#1D1D1F"/>
<path d="M129.024 56.3556L126.826 50.3497V56.3556H125.215V48.0828H127.574L129.692 54.4223L131.809 48.0828H134.191V56.3556H132.58V50.3383L130.382 56.3556H129.024Z" fill="#1D1D1F"/>
<path d="M137.896 56.3556H136.285V48.0828H142.475V56.3556H140.864V49.5558H137.895V56.3556H137.896Z" fill="#1D1D1F"/>
<path d="M150.184 56.3556L149.356 54.2729H146.261L145.445 56.3556H143.73L147.205 48.0828H148.425L151.9 56.3556H150.184ZM147.814 50.2576L146.825 52.8119H148.804L147.814 50.2576Z" fill="#1D1D1F"/>
<path d="M154.926 48.0835V51.3283H157.894V48.0835H159.505V56.3563H157.894V52.8013H154.926V56.3563H153.314V48.0835H154.926Z" fill="#1D1D1F"/>
<path d="M161.518 48.0835H163.13V53.7326L166.558 48.0835H168.354V56.3563H166.743V50.7993L163.314 56.3563H161.518V48.0835Z" fill="#1D1D1F"/>
<path d="M174.21 56.3556V53.2836L172.035 56.3556H170.033L172.392 53.2836C170.781 52.9961 170.033 51.9374 170.033 50.7179C170.033 49.2569 171.334 48.0828 172.933 48.0828H175.821V56.3556H174.21ZM174.21 49.5558H173.105C172.312 49.5558 171.69 50.1195 171.69 50.8213C171.69 51.5004 172.3 52.0408 173.105 52.0408H174.21V49.5558Z" fill="#1D1D1F"/>
</svg>
