<svg width="87" height="26" viewBox="0 0 87 26" fill="none" xmlns="http://www.w3.org/2000/svg">
<path fill-rule="evenodd" clip-rule="evenodd" d="M13.3513 19.0996H9.56245C3.65256 19.0996 7.94612 6.21062 12.9217 6.21062H18.9078C19.8673 6.21062 21.5595 6.39186 22.3932 3.95436L23.6813 0.167969H15.4727C11.0274 0.167969 7.5672 1.77569 5.06685 4.47312C0.747765 9.08929 -0.716852 16.2988 0.31852 19.7477C1.30356 22.9378 3.98079 25.0382 8.17333 25.09L11.4315 25.1161H15.4475L16.4326 22.0819C17.1649 19.9294 15.523 19.0996 13.3513 19.0996ZM59.4699 13.7573L60.7077 9.63377H47.4984C45.3011 9.63377 44.3161 10.2562 43.9372 11.5529L42.6994 15.6764H55.909C58.1063 15.6764 59.0913 15.054 59.4699 13.7573ZM40.7297 21.0187L39.4919 25.1419H52.7011C54.8733 25.1419 55.8835 24.5198 56.2624 23.2231L57.5002 19.0996H44.2906C42.1188 19.0996 41.1337 19.722 40.7297 21.0187ZM62.5516 4.31723L63.789 0.194071H50.5797C48.3824 0.194071 47.3974 0.816128 47.0185 2.11282L45.7807 6.23635H58.9903C61.1624 6.23635 62.1471 5.61392 62.5516 4.31723ZM42.5984 5.14738C42.0429 1.30915 40.0477 0.194071 35.1983 0.194071H26.3585L21.2061 15.6764H24.4643C26.4088 15.6764 27.3939 15.7022 28.4296 12.8496L30.5762 6.21062H33.8595C36.6633 6.21062 36.0317 9.8154 34.6174 13.3161C33.3544 16.4025 31.1571 19.1253 28.5051 19.1253H23.0244C20.8272 19.1253 19.8169 19.7477 19.4129 21.0444L18.0489 25.168H22.0646L26.0047 25.1419C29.4901 25.1161 32.3442 24.8569 35.6783 21.7705C39.214 18.4772 43.3059 10.0227 42.5984 5.14738ZM87 0.167969H79.3472L72.1489 8.02569C71.3156 8.93341 70.4567 9.84113 69.6234 10.9044H69.5475L73.1339 0.167969H66.8954L58.4852 25.1419H64.7233L67.4006 17.2841L70.1788 14.8724L72.3764 21.9783C73.0581 24.1827 73.7656 25.1419 75.2809 25.1419H80.0544L75.1547 11.1897L87 0.167969Z" fill="#CACCD3"/>
</svg>
