<svg width="20" height="20" viewBox="0 0 20 20" fill="none" xmlns="http://www.w3.org/2000/svg">
<path fill-rule="evenodd" clip-rule="evenodd" d="M4.10593 1.36739C5.4402 0.475854 7.00888 0 8.6136 0H8.61365C10.7654 0.000136971 12.8291 0.854999 14.3506 2.37655C15.8722 3.89811 16.7271 5.96174 16.7272 8.11355V8.11359C16.7272 9.71831 16.2513 11.287 15.3598 12.6213C15.2033 12.8554 15.0353 13.0805 14.8565 13.2959L19.7803 18.2197C20.0732 18.5126 20.0732 18.9874 19.7803 19.2803C19.4874 19.5732 19.0126 19.5732 18.7197 19.2803L13.7959 14.3565C13.1735 14.8732 12.474 15.2967 11.7185 15.6096C10.236 16.2237 8.6046 16.3844 7.03071 16.0713C5.45683 15.7582 4.01113 14.9855 2.87642 13.8508C1.74171 12.7161 0.968969 11.2704 0.655904 9.69648C0.342839 8.12259 0.503515 6.49122 1.11761 5.00866C1.73171 3.52609 2.77165 2.25892 4.10593 1.36739ZM8.61355 1.5C7.30552 1.50001 6.02687 1.88789 4.93928 2.61459C3.85168 3.3413 3.004 4.3742 2.50343 5.58268C2.00287 6.79116 1.8719 8.12093 2.12708 9.40384C2.38227 10.6868 3.01215 11.8652 3.93708 12.7901C4.86201 13.715 6.04044 14.3449 7.32335 14.6001C8.60626 14.8553 9.93604 14.7243 11.1445 14.2238C12.353 13.7232 13.3859 12.8755 14.1126 11.7879C14.8393 10.7003 15.2272 9.42167 15.2272 8.11364M8.6136 1.5C10.3676 1.50012 12.0497 2.19695 13.29 3.43721C14.5302 4.67748 15.2271 6.3596 15.2272 8.11359" fill="#373737"/>
</svg>
