<svg width="239" height="37" viewBox="0 0 239 37" fill="none" xmlns="http://www.w3.org/2000/svg">
<path fill-rule="evenodd" clip-rule="evenodd" d="M0 33.0629H17.9783L19.5709 30.3032L3.39173 27.1938L0 33.0629ZM18.7578 0.578125L15.3618 6.45994L26.1522 18.9103L27.749 16.1464L18.7578 0.578125ZM7.84102 19.4834L10.9125 14.1619L23.4978 23.4987L22.2211 25.7107L7.84102 19.4834ZM11.5951 12.9822L14.6456 7.69866L25.4359 20.1533L24.1803 22.3274L11.5951 12.9822ZM4.108 25.9508L7.16267 20.6631L21.547 26.8862L20.2914 29.0603L4.108 25.9508Z" fill="#CACCD3"/>
<path fill-rule="evenodd" clip-rule="evenodd" d="M28.5285 25.7824L32.7292 33.0631H37.5113L28.5285 17.499L19.5372 33.0631H24.3236L28.5285 25.7824Z" fill="#CACCD3"/>
<path fill-rule="evenodd" clip-rule="evenodd" d="M64.2575 30.2573H62.7786L55.519 17.5962H53.0416L45.782 30.2573H44.3705H43.9576V36.7584H46.848V33.0423H61.7084V36.7584H64.5988V30.2573H64.2575ZM49.3971 30.2573L54.1792 21.898L58.995 30.2573H49.3971Z" fill="#CACCD3"/>
<path fill-rule="evenodd" clip-rule="evenodd" d="M147.753 28.0873H157.423L159.036 25.3022H147.753V28.0873Z" fill="#CACCD3"/>
<path fill-rule="evenodd" clip-rule="evenodd" d="M154.6 33.0419L156.184 30.2568H147.753V33.0419H154.6Z" fill="#CACCD3"/>
<path fill-rule="evenodd" clip-rule="evenodd" d="M160.241 23.1701L161.859 20.3809H147.753V23.1701H160.241Z" fill="#CACCD3"/>
<path fill-rule="evenodd" clip-rule="evenodd" d="M122.541 25.5717C123.341 25.2262 124.019 24.6827 124.019 23.3049C124.019 20.6884 121.82 20.3809 120.27 20.3809H112.083V33.0419H120.409C124.226 33.0419 125.018 30.9437 125.018 29.0182C125.014 26.8483 123.788 25.9467 122.541 25.5717ZM115.074 23.0648H119.924C120.649 23.0648 120.956 23.444 120.956 24.1644C120.956 24.9228 120.476 25.302 119.924 25.302H115.074V23.0648ZM120.404 30.358H115.07V27.6404H120.404C121.264 27.6404 121.883 27.8469 121.883 28.9845C121.883 29.8777 121.508 30.358 120.404 30.358Z" fill="#CACCD3"/>
<path fill-rule="evenodd" clip-rule="evenodd" d="M135.61 24.9228H131.001V20.3809H127.972V33.0419H130.348H131.001H135.577C137.637 33.0419 139.773 31.9085 139.773 28.9171C139.773 24.9903 137.022 24.9228 135.61 24.9228ZM135.438 30.358H131.001V27.5351H135.438C135.956 27.5351 136.744 27.6741 136.744 28.9466C136.744 30.1179 136.095 30.358 135.438 30.358Z" fill="#CACCD3"/>
<path d="M144.315 20.3809H141.319V33.0419H144.315V20.3809Z" fill="#CACCD3"/>
<path fill-rule="evenodd" clip-rule="evenodd" d="M66.7728 28.0873H76.4382L78.0561 25.3022H66.7728V28.0873Z" fill="#CACCD3"/>
<path fill-rule="evenodd" clip-rule="evenodd" d="M73.6195 33.0419L75.2037 30.2568H66.7728V33.0419H73.6195Z" fill="#CACCD3"/>
<path fill-rule="evenodd" clip-rule="evenodd" d="M79.2612 23.1701L80.8791 20.3809H66.7728V23.1701H79.2612Z" fill="#CACCD3"/>
<path fill-rule="evenodd" clip-rule="evenodd" d="M77.3357 33.0419L84.5953 20.3809H87.0011L94.2607 33.0419H90.5108L85.6949 24.6827L80.9128 33.0419H77.3357Z" fill="#CACCD3"/>
<path fill-rule="evenodd" clip-rule="evenodd" d="M158.316 33.0419L165.576 20.3809H167.986L175.241 33.0419H171.491L166.675 24.6827L161.893 33.0419H158.316Z" fill="#CACCD3"/>
<path fill-rule="evenodd" clip-rule="evenodd" d="M101.9 20.0732C96.8435 20.0732 94.4335 23.1701 94.4335 26.6418C94.4335 30.2569 96.7719 33.2104 101.9 33.2104C104.137 33.2104 109.298 32.1782 109.298 26.6418C109.294 23.031 106.989 20.0732 101.9 20.0732ZM101.862 30.4254C98.9375 30.4254 97.6988 28.7401 97.6988 26.6755C97.6988 24.4046 99.1103 22.892 101.862 22.892C104.958 22.892 106.024 24.4046 106.024 26.6755C106.024 29.3931 103.998 30.4254 101.862 30.4254Z" fill="#CACCD3"/>
<path fill-rule="evenodd" clip-rule="evenodd" d="M235.062 24.7501V33.0419H238.091V20.3809H235.407L228.249 28.6053V20.3809H225.224V33.0419H227.769L235.062 24.7501Z" fill="#CACCD3"/>
<path fill-rule="evenodd" clip-rule="evenodd" d="M218.756 24.7501V33.0419H221.782V20.3809H219.098L211.943 28.6053V20.3809H208.918V33.0419H211.463L218.756 24.7501Z" fill="#CACCD3"/>
<path fill-rule="evenodd" clip-rule="evenodd" d="M186.314 24.8217V33.0419H189.343V20.3809H186.798L179.505 28.5337V20.3809H176.475V33.0419H179.025L186.314 24.8217Z" fill="#CACCD3"/>
<path fill-rule="evenodd" clip-rule="evenodd" d="M202.451 20.3809V25.302H195.811V20.3809H192.781V33.0419H195.811V28.0871H202.451V33.0419H205.476V20.3809H202.451Z" fill="#CACCD3"/>
</svg>
